<svg width="47" height="45" viewBox="0 0 47 45" fill="none" xmlns="http://www.w3.org/2000/svg">
<path fill-rule="evenodd" clip-rule="evenodd" d="M28.2696 40.6968H0C0 28.3246 7.38965 31.2339 14.917 26.5137C16.7529 31.3314 24.2611 32.3924 28.7209 29.6893C27.6829 31.3298 27.0958 33.2058 27.0167 35.1348C26.9376 37.0637 27.3692 38.9798 28.2696 40.6968ZM17.1775 26.0751C17.0819 25.9101 17.472 24.8679 17.56 24.7029C16.4125 23.7019 15.506 22.6934 15.3148 20.6163H15.1886C14.9043 20.616 14.625 20.5437 14.3777 20.4064C13.9694 20.1543 13.6554 19.7794 13.4827 19.3379C13.0696 18.4081 12.7406 15.9636 13.781 15.2626L13.5859 15.1351L13.563 14.8651C13.5247 14.374 13.5133 13.7779 13.5056 13.1518C13.4674 10.8498 13.4176 8.82527 11.532 8.27789L10.7096 8.0342L11.2413 7.38934C12.6384 5.65492 14.2278 4.0781 15.9803 2.68791C17.7971 1.28573 19.6445 0.352194 21.4537 0.0822552C22.3954 -0.0675429 23.359 -0.0146861 24.2777 0.237157C25.1965 0.489 26.0483 0.933796 26.7741 1.54067C27.2963 1.96007 27.7743 2.42982 28.2008 2.94286C29.0463 3.03405 29.8628 3.29887 30.5969 3.72005C31.3311 4.14123 31.9665 4.70932 32.4617 5.3873C33.0899 6.21229 33.5604 7.14213 33.8501 8.13168C34.153 9.13965 34.2822 10.1901 34.2326 11.2397C34.1331 13.1143 33.4332 14.1866 32.0218 15.5212C32.2619 15.5285 32.4972 15.5888 32.7103 15.6975C33.4982 16.1099 33.5212 17.0059 33.3184 17.7557C33.1004 18.3706 32.8403 19.1204 32.5955 19.724C32.2972 20.5526 31.8612 20.7063 31.0235 20.6163C30.9776 22.6596 30.0138 23.6644 28.7286 24.8641L29.0116 25.8689C28.1931 29.7605 19.5068 30.1804 17.1545 26.0826L17.1775 26.0751Z" fill="#FFD740"/>
<circle cx="38" cy="36" r="9" fill="#FF7043"/>
<path d="M43 37.1961H39.2941V41H36.7059V37.1961H33V34.8039H36.7059V31H39.2941V34.8039H43V37.1961Z" fill="white"/>
</svg>
