<svg width="32" height="27" viewBox="0 0 32 27" fill="none" xmlns="http://www.w3.org/2000/svg">
<path d="M9 22C9.55228 22 10 21.5523 10 21C10 20.4477 9.55228 20 9 20C8.44772 20 8 20.4477 8 21C8 21.5523 8.44772 22 9 22Z" fill="#FF7043"/>
<path d="M17.8 20.4C17.7 20.2 13.9 15 9 15C4.1 15 0.299999 20.2 0.199999 20.4C-7.59959e-07 20.7 -7.59959e-07 21.2 0.199999 21.6C0.299999 21.8 4.1 27 9 27C13.9 27 17.7 21.8 17.8 21.6C18.1 21.2 18.1 20.8 17.8 20.4ZM9 24C7.3 24 6 22.7 6 21C6 19.3 7.3 18 9 18C10.7 18 12 19.3 12 21C12 22.7 10.7 24 9 24Z" fill="#FF7043"/>
<path d="M9 22C9.55228 22 10 21.5523 10 21C10 20.4477 9.55228 20 9 20C8.44772 20 8 20.4477 8 21C8 21.5523 8.44772 22 9 22Z" fill="#FFD740"/>
<path d="M29 4H20.1L17.8 0.5C17.7 0.2 17.3 0 17 0H7C5.3 0 4 1.3 4 3V14.4C5.5 13.6 7.1 13 9 13C14.8 13 19 18.6 19.4 19.3C20.2 20.3 20.2 21.8 19.4 22.8C19.3 23 18.9 23.4 18.4 24.1H29C30.7 24.1 32 22.8 32 21.1V7C32 5.3 30.7 4 29 4ZM30 19.6L21.4 6H29C29.6 6 30 6.4 30 7V19.6Z" fill="#FFD740"/>
</svg>
