<svg width="48" height="30" viewBox="0 0 48 30" fill="none" xmlns="http://www.w3.org/2000/svg">
<rect x="0.224121" y="0.810303" width="47.5518" height="28.3794" rx="4" fill="#FFD740"/>
<path d="M15.7747 5.901C18.2935 5.901 20.3443 7.94284 20.3443 10.4506C20.3443 12.9583 18.2935 15.0001 15.7747 15.0001C13.2558 15.0001 11.205 12.9583 11.205 10.4506C11.205 7.94284 13.2558 5.901 15.7747 5.901ZM24.0001 22.7343C24.0001 23.4877 23.3859 24.0992 22.6292 24.0992H8.92013C8.16339 24.0992 7.54922 23.4877 7.54922 22.7343V21.8244C7.54922 19.0638 9.80299 16.8199 12.5759 16.8199H18.9734C21.7463 16.8199 24.0001 19.0638 24.0001 21.8244V22.7343ZM39.08 24.0992H29.0267C28.27 24.0992 27.6558 23.4877 27.6558 22.7343C27.6558 21.9809 28.27 21.3695 29.0267 21.3695H39.08C39.8368 21.3695 40.4509 21.9809 40.4509 22.7343C40.4509 23.4877 39.8368 24.0992 39.08 24.0992ZM39.08 16.8199H29.0267C28.27 16.8199 27.6558 16.2085 27.6558 15.4551C27.6558 14.7017 28.27 14.0902 29.0267 14.0902H39.08C39.8368 14.0902 40.4509 14.7017 40.4509 15.4551C40.4509 16.2085 39.8368 16.8199 39.08 16.8199ZM39.08 9.54064H29.0267C28.27 9.54064 27.6558 8.92918 27.6558 8.17578C27.6558 7.42237 28.27 6.81091 29.0267 6.81091H39.08C39.8368 6.81091 40.4509 7.42237 40.4509 8.17578C40.4509 8.92918 39.8368 9.54064 39.08 9.54064Z" fill="#FF7043"/>
</svg>
