<svg width="39" height="42" viewBox="0 0 39 42" fill="none" xmlns="http://www.w3.org/2000/svg">
<path d="M37.8092 31.5998C37.1359 29.8798 35.8025 28.5051 34.1625 27.7233C36.6625 24.3614 37.9425 21.3123 37.9425 18.6607V6.09946C37.9425 5.89098 37.8425 5.69552 37.6759 5.57825C37.5092 5.45446 37.2892 5.41537 37.0892 5.47401C35.5159 5.92355 33.8559 6.15158 32.1559 6.15158C27.4159 6.15158 22.9425 4.35992 19.5692 1.11537C19.3159 0.867794 18.8959 0.867794 18.6359 1.11537C15.2625 4.35992 10.7959 6.15158 6.04921 6.15158C4.35588 6.15158 2.68921 5.92355 1.11588 5.47401C0.915876 5.41537 0.695876 5.45446 0.529209 5.57825C0.362543 5.69552 0.262543 5.89098 0.262543 6.09946V18.6607C0.262543 28.6354 17.9692 40.7014 18.7225 41.2096C18.8425 41.2878 18.9692 41.3269 19.1025 41.3269C19.2359 41.3269 19.3692 41.2878 19.4825 41.2096C19.5092 41.1966 21.6625 39.7307 24.4559 37.4569C25.2892 39.014 26.6825 40.2584 28.4359 40.8839C29.2359 41.177 30.0892 41.3269 30.9559 41.3269C35.0025 41.3269 38.2892 38.1084 38.2892 34.1602C38.2892 33.2611 38.1292 32.4011 37.8092 31.5998ZM23.6225 34.1602C23.6225 34.8573 23.7292 35.5414 23.9292 36.1864C21.7225 38.0042 19.8692 39.3398 19.1025 39.874C16.5159 38.0563 1.59588 27.1955 1.59588 18.6607V6.94643C3.03588 7.2787 4.52921 7.45461 6.04921 7.45461C10.9292 7.45461 15.5425 5.68901 19.1025 2.48355C22.6692 5.68901 27.2759 7.45461 32.1559 7.45461C33.6825 7.45461 35.1759 7.2787 36.6092 6.94643V18.6607C36.6092 21.1104 35.3425 24.0031 32.8692 27.2476C32.2559 27.0848 31.6092 26.9936 30.9559 26.9936C26.9092 26.9936 23.6225 30.2055 23.6225 34.1602ZM34.1359 32.564L29.9359 36.6751C29.8092 36.7989 29.6425 36.864 29.4625 36.864C29.2825 36.864 29.1159 36.7923 28.9892 36.6751L27.7759 35.4828C27.5159 35.2222 27.5159 34.8117 27.7759 34.5576C28.0425 34.3036 28.4625 34.3036 28.7225 34.5642L29.4625 35.2873L33.1892 31.6389C33.4492 31.3848 33.8759 31.3848 34.1359 31.6389C34.3959 31.893 34.3959 32.3099 34.1359 32.564Z" fill="#FF7043"/>
<path d="M28.2292 23.736C27.4625 26.1401 25.3025 27.7689 22.7425 27.8861C21.5359 27.9448 20.3159 27.9708 19.0959 27.9708C17.8825 27.9708 16.6759 27.9448 15.4692 27.8926C12.8759 27.7689 10.7292 26.1336 9.99587 23.7099C9.26253 21.3123 10.1425 18.817 12.2292 17.3511C13.4625 16.4781 14.8425 15.8657 16.2959 15.5204C15.1492 14.6864 14.3959 13.3639 14.3959 11.8654C14.3959 9.35052 16.5025 7.31128 19.0959 7.31128C21.6892 7.31128 23.7959 9.35052 23.7959 11.8654C23.7959 13.3639 23.0492 14.6864 21.8959 15.5204C23.4759 15.8917 24.9492 16.5823 26.2625 17.5661C28.2225 19.0386 28.9825 21.4036 28.2292 23.736Z" fill="#FFD740"/>
</svg>
